<mxfile host="app.diagrams.net" agent="Mozilla/5.0 (Macintosh; Intel Mac OS X 10_15_7) AppleWebKit/605.1.15 (KHTML, like Gecko) Version/17.5 Safari/605.1.15" version="24.7.10">
  <diagram id="C5RBs43oDa-KdzZeNtuy" name="Page-1">
    <mxGraphModel dx="1084" dy="1036" grid="1" gridSize="10" guides="1" tooltips="1" connect="1" arrows="1" fold="1" page="1" pageScale="1" pageWidth="827" pageHeight="1169" math="0" shadow="0">
      <root>
        <mxCell id="WIyWlLk6GJQsqaUBKTNV-0" />
        <mxCell id="WIyWlLk6GJQsqaUBKTNV-1" parent="WIyWlLk6GJQsqaUBKTNV-0" />
        <mxCell id="dr-JlYP-XfggMamK9iXS-31" style="edgeStyle=orthogonalEdgeStyle;rounded=0;orthogonalLoop=1;jettySize=auto;html=1;" edge="1" parent="WIyWlLk6GJQsqaUBKTNV-1" source="dr-JlYP-XfggMamK9iXS-0" target="dr-JlYP-XfggMamK9iXS-2">
          <mxGeometry relative="1" as="geometry" />
        </mxCell>
        <mxCell id="dr-JlYP-XfggMamK9iXS-0" value="start" style="ellipse;whiteSpace=wrap;html=1;" vertex="1" parent="WIyWlLk6GJQsqaUBKTNV-1">
          <mxGeometry x="120" y="50" width="100" height="50" as="geometry" />
        </mxCell>
        <mxCell id="dr-JlYP-XfggMamK9iXS-10" style="edgeStyle=orthogonalEdgeStyle;rounded=0;orthogonalLoop=1;jettySize=auto;html=1;" edge="1" parent="WIyWlLk6GJQsqaUBKTNV-1" source="dr-JlYP-XfggMamK9iXS-2" target="dr-JlYP-XfggMamK9iXS-3">
          <mxGeometry relative="1" as="geometry" />
        </mxCell>
        <mxCell id="dr-JlYP-XfggMamK9iXS-2" value="CONST ENDING = &quot;.&quot;" style="rounded=0;whiteSpace=wrap;html=1;" vertex="1" parent="WIyWlLk6GJQsqaUBKTNV-1">
          <mxGeometry x="70" y="140" width="210" height="40" as="geometry" />
        </mxCell>
        <mxCell id="dr-JlYP-XfggMamK9iXS-11" style="edgeStyle=orthogonalEdgeStyle;rounded=0;orthogonalLoop=1;jettySize=auto;html=1;" edge="1" parent="WIyWlLk6GJQsqaUBKTNV-1" source="dr-JlYP-XfggMamK9iXS-3" target="dr-JlYP-XfggMamK9iXS-9">
          <mxGeometry relative="1" as="geometry" />
        </mxCell>
        <mxCell id="dr-JlYP-XfggMamK9iXS-3" value="float monthlyPay = 0.0" style="rounded=0;whiteSpace=wrap;html=1;" vertex="1" parent="WIyWlLk6GJQsqaUBKTNV-1">
          <mxGeometry x="70" y="210" width="210" height="40" as="geometry" />
        </mxCell>
        <mxCell id="dr-JlYP-XfggMamK9iXS-13" style="edgeStyle=orthogonalEdgeStyle;rounded=0;orthogonalLoop=1;jettySize=auto;html=1;" edge="1" parent="WIyWlLk6GJQsqaUBKTNV-1" source="dr-JlYP-XfggMamK9iXS-5" target="dr-JlYP-XfggMamK9iXS-6">
          <mxGeometry relative="1" as="geometry" />
        </mxCell>
        <mxCell id="dr-JlYP-XfggMamK9iXS-5" value="float monthlyUtilities = 0.0" style="rounded=0;whiteSpace=wrap;html=1;" vertex="1" parent="WIyWlLk6GJQsqaUBKTNV-1">
          <mxGeometry x="70" y="350" width="210" height="40" as="geometry" />
        </mxCell>
        <mxCell id="dr-JlYP-XfggMamK9iXS-14" style="edgeStyle=orthogonalEdgeStyle;rounded=0;orthogonalLoop=1;jettySize=auto;html=1;" edge="1" parent="WIyWlLk6GJQsqaUBKTNV-1" source="dr-JlYP-XfggMamK9iXS-6" target="dr-JlYP-XfggMamK9iXS-7">
          <mxGeometry relative="1" as="geometry" />
        </mxCell>
        <mxCell id="dr-JlYP-XfggMamK9iXS-6" value="float groceryBill = 0.0" style="rounded=0;whiteSpace=wrap;html=1;" vertex="1" parent="WIyWlLk6GJQsqaUBKTNV-1">
          <mxGeometry x="70" y="420" width="210" height="40" as="geometry" />
        </mxCell>
        <mxCell id="dr-JlYP-XfggMamK9iXS-15" style="edgeStyle=orthogonalEdgeStyle;rounded=0;orthogonalLoop=1;jettySize=auto;html=1;" edge="1" parent="WIyWlLk6GJQsqaUBKTNV-1" source="dr-JlYP-XfggMamK9iXS-7" target="dr-JlYP-XfggMamK9iXS-8">
          <mxGeometry relative="1" as="geometry" />
        </mxCell>
        <mxCell id="dr-JlYP-XfggMamK9iXS-7" value="float spending = 0.0" style="rounded=0;whiteSpace=wrap;html=1;" vertex="1" parent="WIyWlLk6GJQsqaUBKTNV-1">
          <mxGeometry x="70" y="480" width="210" height="50" as="geometry" />
        </mxCell>
        <mxCell id="dr-JlYP-XfggMamK9iXS-25" style="edgeStyle=orthogonalEdgeStyle;rounded=0;orthogonalLoop=1;jettySize=auto;html=1;" edge="1" parent="WIyWlLk6GJQsqaUBKTNV-1" source="dr-JlYP-XfggMamK9iXS-8" target="dr-JlYP-XfggMamK9iXS-16">
          <mxGeometry relative="1" as="geometry" />
        </mxCell>
        <mxCell id="dr-JlYP-XfggMamK9iXS-8" value="float totalBills = 0.0" style="rounded=0;whiteSpace=wrap;html=1;" vertex="1" parent="WIyWlLk6GJQsqaUBKTNV-1">
          <mxGeometry x="70" y="560" width="210" height="40" as="geometry" />
        </mxCell>
        <mxCell id="dr-JlYP-XfggMamK9iXS-12" style="edgeStyle=orthogonalEdgeStyle;rounded=0;orthogonalLoop=1;jettySize=auto;html=1;" edge="1" parent="WIyWlLk6GJQsqaUBKTNV-1" source="dr-JlYP-XfggMamK9iXS-9" target="dr-JlYP-XfggMamK9iXS-5">
          <mxGeometry relative="1" as="geometry" />
        </mxCell>
        <mxCell id="dr-JlYP-XfggMamK9iXS-9" value="float monthlyRent = 0.0" style="rounded=0;whiteSpace=wrap;html=1;" vertex="1" parent="WIyWlLk6GJQsqaUBKTNV-1">
          <mxGeometry x="70" y="280" width="210" height="40" as="geometry" />
        </mxCell>
        <mxCell id="dr-JlYP-XfggMamK9iXS-26" style="edgeStyle=orthogonalEdgeStyle;rounded=0;orthogonalLoop=1;jettySize=auto;html=1;" edge="1" parent="WIyWlLk6GJQsqaUBKTNV-1" source="dr-JlYP-XfggMamK9iXS-16" target="dr-JlYP-XfggMamK9iXS-17">
          <mxGeometry relative="1" as="geometry" />
        </mxCell>
        <mxCell id="dr-JlYP-XfggMamK9iXS-16" value="output &quot;How much money do you bring home monthly?&quot;" style="shape=parallelogram;html=1;strokeWidth=2;perimeter=parallelogramPerimeter;whiteSpace=wrap;rounded=1;arcSize=12;size=0.23;" vertex="1" parent="WIyWlLk6GJQsqaUBKTNV-1">
          <mxGeometry x="40" y="650" width="510" height="50" as="geometry" />
        </mxCell>
        <mxCell id="dr-JlYP-XfggMamK9iXS-27" style="edgeStyle=orthogonalEdgeStyle;rounded=0;orthogonalLoop=1;jettySize=auto;html=1;" edge="1" parent="WIyWlLk6GJQsqaUBKTNV-1" source="dr-JlYP-XfggMamK9iXS-17" target="dr-JlYP-XfggMamK9iXS-18">
          <mxGeometry relative="1" as="geometry" />
        </mxCell>
        <mxCell id="dr-JlYP-XfggMamK9iXS-17" value="input monthlyPay" style="shape=parallelogram;html=1;strokeWidth=2;perimeter=parallelogramPerimeter;whiteSpace=wrap;rounded=1;arcSize=12;size=0.23;" vertex="1" parent="WIyWlLk6GJQsqaUBKTNV-1">
          <mxGeometry x="90" y="730" width="200" height="40" as="geometry" />
        </mxCell>
        <mxCell id="dr-JlYP-XfggMamK9iXS-18" value="output &quot;How much do you pay monthly for rent?&quot;" style="shape=parallelogram;html=1;strokeWidth=2;perimeter=parallelogramPerimeter;whiteSpace=wrap;rounded=1;arcSize=12;size=0.23;" vertex="1" parent="WIyWlLk6GJQsqaUBKTNV-1">
          <mxGeometry x="110" y="800" width="440" height="40" as="geometry" />
        </mxCell>
        <mxCell id="dr-JlYP-XfggMamK9iXS-29" style="edgeStyle=orthogonalEdgeStyle;rounded=0;orthogonalLoop=1;jettySize=auto;html=1;" edge="1" parent="WIyWlLk6GJQsqaUBKTNV-1" source="dr-JlYP-XfggMamK9iXS-19" target="dr-JlYP-XfggMamK9iXS-20">
          <mxGeometry relative="1" as="geometry" />
        </mxCell>
        <mxCell id="dr-JlYP-XfggMamK9iXS-19" value="input monthlyRent" style="shape=parallelogram;html=1;strokeWidth=2;perimeter=parallelogramPerimeter;whiteSpace=wrap;rounded=1;arcSize=12;size=0.23;" vertex="1" parent="WIyWlLk6GJQsqaUBKTNV-1">
          <mxGeometry x="60" y="870" width="200" height="40" as="geometry" />
        </mxCell>
        <mxCell id="dr-JlYP-XfggMamK9iXS-30" style="edgeStyle=orthogonalEdgeStyle;rounded=0;orthogonalLoop=1;jettySize=auto;html=1;" edge="1" parent="WIyWlLk6GJQsqaUBKTNV-1" source="dr-JlYP-XfggMamK9iXS-20" target="dr-JlYP-XfggMamK9iXS-24">
          <mxGeometry relative="1" as="geometry" />
        </mxCell>
        <mxCell id="dr-JlYP-XfggMamK9iXS-20" value="output &quot;How much do you pay monthly for utilities?&quot;" style="shape=parallelogram;html=1;strokeWidth=2;perimeter=parallelogramPerimeter;whiteSpace=wrap;rounded=1;arcSize=12;size=0.23;" vertex="1" parent="WIyWlLk6GJQsqaUBKTNV-1">
          <mxGeometry x="105" y="950" width="450" height="40" as="geometry" />
        </mxCell>
        <mxCell id="dr-JlYP-XfggMamK9iXS-41" style="edgeStyle=orthogonalEdgeStyle;rounded=0;orthogonalLoop=1;jettySize=auto;html=1;" edge="1" parent="WIyWlLk6GJQsqaUBKTNV-1" source="dr-JlYP-XfggMamK9iXS-21" target="dr-JlYP-XfggMamK9iXS-33">
          <mxGeometry relative="1" as="geometry" />
        </mxCell>
        <mxCell id="dr-JlYP-XfggMamK9iXS-21" value="input groceryBill" style="shape=parallelogram;html=1;strokeWidth=2;perimeter=parallelogramPerimeter;whiteSpace=wrap;rounded=1;arcSize=12;size=0.23;" vertex="1" parent="WIyWlLk6GJQsqaUBKTNV-1">
          <mxGeometry x="400" y="280" width="175" height="40" as="geometry" />
        </mxCell>
        <mxCell id="dr-JlYP-XfggMamK9iXS-40" style="edgeStyle=orthogonalEdgeStyle;rounded=0;orthogonalLoop=1;jettySize=auto;html=1;" edge="1" parent="WIyWlLk6GJQsqaUBKTNV-1" source="dr-JlYP-XfggMamK9iXS-22" target="dr-JlYP-XfggMamK9iXS-21">
          <mxGeometry relative="1" as="geometry" />
        </mxCell>
        <mxCell id="dr-JlYP-XfggMamK9iXS-22" value="output &quot;How much do you spend monthly on groceries?&quot;" style="shape=parallelogram;html=1;strokeWidth=2;perimeter=parallelogramPerimeter;whiteSpace=wrap;rounded=1;arcSize=12;size=0.23;" vertex="1" parent="WIyWlLk6GJQsqaUBKTNV-1">
          <mxGeometry x="345" y="210" width="460" height="40" as="geometry" />
        </mxCell>
        <mxCell id="dr-JlYP-XfggMamK9iXS-39" style="edgeStyle=orthogonalEdgeStyle;rounded=0;orthogonalLoop=1;jettySize=auto;html=1;" edge="1" parent="WIyWlLk6GJQsqaUBKTNV-1" source="dr-JlYP-XfggMamK9iXS-23" target="dr-JlYP-XfggMamK9iXS-22">
          <mxGeometry relative="1" as="geometry" />
        </mxCell>
        <mxCell id="dr-JlYP-XfggMamK9iXS-23" value="input monthlyUtilities" style="shape=parallelogram;html=1;strokeWidth=2;perimeter=parallelogramPerimeter;whiteSpace=wrap;rounded=1;arcSize=12;size=0.23;" vertex="1" parent="WIyWlLk6GJQsqaUBKTNV-1">
          <mxGeometry x="430" y="140" width="250" height="40" as="geometry" />
        </mxCell>
        <mxCell id="dr-JlYP-XfggMamK9iXS-24" value="1" style="ellipse;whiteSpace=wrap;html=1;" vertex="1" parent="WIyWlLk6GJQsqaUBKTNV-1">
          <mxGeometry x="255" y="1050" width="85" height="70" as="geometry" />
        </mxCell>
        <mxCell id="dr-JlYP-XfggMamK9iXS-28" style="edgeStyle=orthogonalEdgeStyle;rounded=0;orthogonalLoop=1;jettySize=auto;html=1;entryX=0.705;entryY=0.125;entryDx=0;entryDy=0;entryPerimeter=0;" edge="1" parent="WIyWlLk6GJQsqaUBKTNV-1" source="dr-JlYP-XfggMamK9iXS-18" target="dr-JlYP-XfggMamK9iXS-19">
          <mxGeometry relative="1" as="geometry" />
        </mxCell>
        <mxCell id="dr-JlYP-XfggMamK9iXS-38" style="edgeStyle=orthogonalEdgeStyle;rounded=0;orthogonalLoop=1;jettySize=auto;html=1;" edge="1" parent="WIyWlLk6GJQsqaUBKTNV-1" source="dr-JlYP-XfggMamK9iXS-32" target="dr-JlYP-XfggMamK9iXS-23">
          <mxGeometry relative="1" as="geometry" />
        </mxCell>
        <mxCell id="dr-JlYP-XfggMamK9iXS-32" value="1" style="ellipse;whiteSpace=wrap;html=1;" vertex="1" parent="WIyWlLk6GJQsqaUBKTNV-1">
          <mxGeometry x="530" y="42.5" width="90" height="65" as="geometry" />
        </mxCell>
        <mxCell id="dr-JlYP-XfggMamK9iXS-42" style="edgeStyle=orthogonalEdgeStyle;rounded=0;orthogonalLoop=1;jettySize=auto;html=1;" edge="1" parent="WIyWlLk6GJQsqaUBKTNV-1" source="dr-JlYP-XfggMamK9iXS-33" target="dr-JlYP-XfggMamK9iXS-34">
          <mxGeometry relative="1" as="geometry" />
        </mxCell>
        <mxCell id="dr-JlYP-XfggMamK9iXS-33" value="totalBills = monthlyRent + groceryBill + monthlyUtilities" style="rounded=0;whiteSpace=wrap;html=1;" vertex="1" parent="WIyWlLk6GJQsqaUBKTNV-1">
          <mxGeometry x="450" y="345" width="360" height="50" as="geometry" />
        </mxCell>
        <mxCell id="dr-JlYP-XfggMamK9iXS-43" style="edgeStyle=orthogonalEdgeStyle;rounded=0;orthogonalLoop=1;jettySize=auto;html=1;" edge="1" parent="WIyWlLk6GJQsqaUBKTNV-1" source="dr-JlYP-XfggMamK9iXS-34" target="dr-JlYP-XfggMamK9iXS-35">
          <mxGeometry relative="1" as="geometry" />
        </mxCell>
        <mxCell id="dr-JlYP-XfggMamK9iXS-34" value="spending = monthlyPay - totalBills" style="rounded=0;whiteSpace=wrap;html=1;" vertex="1" parent="WIyWlLk6GJQsqaUBKTNV-1">
          <mxGeometry x="460" y="420" width="230" height="50" as="geometry" />
        </mxCell>
        <mxCell id="dr-JlYP-XfggMamK9iXS-44" style="edgeStyle=orthogonalEdgeStyle;rounded=0;orthogonalLoop=1;jettySize=auto;html=1;" edge="1" parent="WIyWlLk6GJQsqaUBKTNV-1" source="dr-JlYP-XfggMamK9iXS-35" target="dr-JlYP-XfggMamK9iXS-36">
          <mxGeometry relative="1" as="geometry" />
        </mxCell>
        <mxCell id="dr-JlYP-XfggMamK9iXS-35" value="output &quot;You get paid $&quot; + monthlyPay + &quot; dollars per month&quot; + ENDING" style="shape=parallelogram;html=1;strokeWidth=2;perimeter=parallelogramPerimeter;whiteSpace=wrap;rounded=1;arcSize=12;size=0.23;" vertex="1" parent="WIyWlLk6GJQsqaUBKTNV-1">
          <mxGeometry x="540" y="505" width="610" height="50" as="geometry" />
        </mxCell>
        <mxCell id="dr-JlYP-XfggMamK9iXS-45" style="edgeStyle=orthogonalEdgeStyle;rounded=0;orthogonalLoop=1;jettySize=auto;html=1;" edge="1" parent="WIyWlLk6GJQsqaUBKTNV-1" source="dr-JlYP-XfggMamK9iXS-36" target="dr-JlYP-XfggMamK9iXS-37">
          <mxGeometry relative="1" as="geometry" />
        </mxCell>
        <mxCell id="dr-JlYP-XfggMamK9iXS-36" value="output &quot;Your total monthly bills are $&quot; + totalBills + ENDING" style="shape=parallelogram;html=1;strokeWidth=2;perimeter=parallelogramPerimeter;whiteSpace=wrap;rounded=1;arcSize=12;size=0.23;" vertex="1" parent="WIyWlLk6GJQsqaUBKTNV-1">
          <mxGeometry x="600" y="585" width="510" height="50" as="geometry" />
        </mxCell>
        <mxCell id="dr-JlYP-XfggMamK9iXS-47" style="edgeStyle=orthogonalEdgeStyle;rounded=0;orthogonalLoop=1;jettySize=auto;html=1;" edge="1" parent="WIyWlLk6GJQsqaUBKTNV-1" source="dr-JlYP-XfggMamK9iXS-37" target="dr-JlYP-XfggMamK9iXS-46">
          <mxGeometry relative="1" as="geometry" />
        </mxCell>
        <mxCell id="dr-JlYP-XfggMamK9iXS-37" value="output &quot;Which leaves you $&quot; + spending + &quot; free to spend&quot; + ENDING" style="shape=parallelogram;html=1;strokeWidth=2;perimeter=parallelogramPerimeter;whiteSpace=wrap;rounded=1;arcSize=12;size=0.23;" vertex="1" parent="WIyWlLk6GJQsqaUBKTNV-1">
          <mxGeometry x="575" y="670" width="540" height="50" as="geometry" />
        </mxCell>
        <mxCell id="dr-JlYP-XfggMamK9iXS-46" value="stop" style="ellipse;whiteSpace=wrap;html=1;" vertex="1" parent="WIyWlLk6GJQsqaUBKTNV-1">
          <mxGeometry x="805" y="760" width="100" height="50" as="geometry" />
        </mxCell>
      </root>
    </mxGraphModel>
  </diagram>
</mxfile>
